# xmcd CD database file
#
# Track frame offsets:
#	150
#	16725
#	31998
#	48608
#	60818
#	76258
#	93705
#	114978
#	131184
#	145398
#
# Disc length: 2159 seconds
#
# Revision: 0
# Processed by: cddbd v1.5.2PL0 Copyright (c) Steve Scherf et al.
# Submitted via: ACXtractor (MTCDDB.DLL V2003.07.15)
#
DISCID=7e086d0a
DTITLE=Anita Perras - Think Again
DYEAR=2004
DGENRE=Country
TTITLE0=Think Again
TTITLE1=Then You Can Tell Me Goodbye
TTITLE2=You Should Dream
TTITLE3=Tomorrow
TTITLE4=Rain or Shine
TTITLE5=Crystal teardrops
TTITLE6=Another Thing I Can't Do
TTITLE7=That Silver Haired Daddy of Mine
TTITLE8=I'll Take Care of You
TTITLE9=Cry
EXTD=ID3G:   2 YEAR: 2004
EXTT0=
EXTT1=
EXTT2=
EXTT3=
EXTT4=
EXTT5=
EXTT6=
EXTT7=
EXTT8=
EXTT9=
PLAYORDER=
